PathFileType  4	(X/Y/Z) C:\Users\antoi\Documents\MyRepositories\mobilecap\ResultsAnalysis
DataRate	CameraRate	NumFrames	NumMarkers	Units	OrigDataRate	OrigDataStartFrame	OrigNumFrames
100.0	100.0	4	51	mm	100.0	115	306
Frame#	Time	r_knee			r_shank_antsup			r_ankle			r_calc			r_5meta			r_toe			L_knee			L_shank_antsup			L_ankle			L_calc			L_5meta			L_toe			r_sh2			r_sh3			r_sh4			L_sh2			L_sh3			r_thigh1			r_thigh2			r_thigh3			r_thigh4			r_thigh5			L_thigh1			L_thigh2			L_thigh3			L_thigh4			r.ASIS			r.PSIS			L.ASIS			L.PSIS			C7			R_Shoulder			L_Shoulder			R_Sternum			L_Sternum			R_humerus			R_elbow_med			R_elbow_lat			R_forearm			R_wrist_radius			R_wrist_ulna			L_humerus			L_elbow_med			L_elbow_lat			L_forearm			L_wrist_radius			L_wrist_ulna			R_HJC			L_HJC			R_HJC_reg			L_HJC_reg			
		X1	Y1	Z1	X2	Y2	Z2	X3	Y3	Z3	X4	Y4	Z4	X5	Y5	Z5	X6	Y6	Z6	X7	Y7	Z7	X8	Y8	Z8	X9	Y9	Z9	X10	Y10	Z10	X11	Y11	Z11	X12	Y12	Z12	X13	Y13	Z13	X14	Y14	Z14	X15	Y15	Z15	X16	Y16	Z16	X17	Y17	Z17	X18	Y18	Z18	X19	Y19	Z19	X20	Y20	Z20	X21	Y21	Z21	X22	Y22	Z22	X23	Y23	Z23	X24	Y24	Z24	X25	Y25	Z25	X26	Y26	Z26	X27	Y27	Z27	X28	Y28	Z28	X29	Y29	Z29	X30	Y30	Z30	X31	Y31	Z31	X32	Y32	Z32	X33	Y33	Z33	X34	Y34	Z34	X35	Y35	Z35	X36	Y36	Z36	X37	Y37	Z37	X38	Y38	Z38	X39	Y39	Z39	X40	Y40	Z40	X41	Y41	Z41	X42	Y42	Z42	X43	Y43	Z43	X44	Y44	Z44	X45	Y45	Z45	X46	Y46	Z46	X47	Y47	Z47	X48	Y48	Z48	X49	Y49	Z49	X50	Y50	Z50	X51	Y51	Z51	

115	1.14000000	-995.07561	687.14162	-429.66355	-1012.04051	567.93750	-451.66688	-1236.01508	402.35222	-464.16146	-1299.33908	365.27272	-512.00174	-1141.46991	346.59299	-421.07306	-1102.21868	360.07152	-463.92514	-960.44946	690.40998	-693.02709	-982.06839	577.50778	-649.16530	-1227.39786	424.86016	-710.70782	-1293.57613	395.63107	-675.66114	-1134.42226	352.01116	-739.33665	-1092.78771	357.46796	-684.58288	-1090.08352	487.13261	-465.51036	-1054.73130	596.72491	-396.61534	-1143.06216	529.57004	-417.32320	-997.55776	628.88534	-721.50612	-1083.77557	545.29350	-743.80870	-995.27356	992.21789	-402.17844	-963.39788	891.36751	-401.86658	-1000.10603	846.14060	-374.24315	-1097.12064	955.01291	-371.48192	-1056.20980	846.10024	-376.22637	-995.71841	978.78145	-730.91852	-931.83629	854.52003	-712.69191	-1096.46360	936.14936	-748.66358	-1034.16090	809.23429	-728.75755	-983.26209	1096.39032	-437.30195	-1122.97074	1219.06612	-510.39657	-977.61813	1088.02267	-680.49544	-1123.46888	1217.68637	-628.59302	-869.82666	1595.10476	-555.27620	-812.94912	1543.58692	-405.23731	-808.13182	1545.45069	-709.07956	-770.84585	1496.26153	-533.35655	-771.10634	1493.27890	-576.24015	-833.55489	1418.77785	-342.42127	-979.44876	1257.01620	-361.65232	-938.46256	1258.90471	-297.79020	-890.33944	1138.50307	-293.55610	-859.46309	1040.26435	-302.38242	-887.98810	1031.44665	-280.07104	-829.38633	1402.21226	-781.67227	-953.56776	1236.35986	-774.65178	-924.39657	1248.66840	-842.43808	-860.72484	1162.10264	-845.02706	-807.08637	1047.49763	-816.33376	-826.94625	1035.31013	-840.49022	-1096.26330	1075.72661	-464.21222	-1089.79882	1064.21847	-653.12955	-1077.41206	1067.36166	-470.57113	-1078.08900	1065.48666	-631.20430	
116	1.15000000	-994.21950	688.24936	-429.94506	-1011.92761	569.06129	-451.45926	-1235.75871	402.89632	-464.27343	-1299.11823	366.22841	-512.14173	-1141.42899	346.57778	-421.08623	-1102.08551	360.00270	-463.85591	-958.85376	690.59307	-691.06935	-981.85424	577.94788	-646.95707	-1226.88392	425.35688	-709.87810	-1293.14963	396.30041	-674.09430	-1134.29516	352.41888	-739.02514	-1092.60446	357.45662	-684.22191	-1089.73263	487.84505	-465.45960	-1054.76434	597.86931	-396.55241	-1143.11280	530.41598	-417.61768	-996.46390	628.76062	-719.50923	-1082.49098	545.10278	-742.10499	-984.78819	993.76080	-402.68644	-956.47654	891.35738	-402.85266	-994.32649	847.77399	-374.45821	-1087.93955	959.64507	-371.91322	-1050.51519	849.49888	-376.51308	-985.23549	979.93697	-729.79504	-925.47657	853.65573	-710.84129	-1087.13447	940.68886	-747.99074	-1029.21823	811.63921	-727.56030	-970.96767	1101.85075	-437.56591	-1111.87986	1223.51284	-510.59224	-965.30738	1093.92162	-680.63322	-1112.38272	1222.21287	-628.73576	-865.36519	1604.08141	-555.36622	-807.91803	1554.01676	-405.46165	-803.71453	1555.89896	-709.19475	-764.91625	1506.88137	-533.49556	-764.86067	1503.79496	-576.62878	-828.01582	1429.71813	-341.36004	-974.19103	1267.44447	-358.44187	-932.26296	1270.20126	-295.30870	-880.36079	1151.30826	-292.13743	-846.56525	1054.13489	-302.00132	-874.37479	1044.43187	-278.99820	-823.83467	1413.31810	-783.30052	-947.54266	1247.00186	-778.54816	-917.78425	1260.07246	-846.10595	-851.64314	1175.25627	-847.06428	-795.97760	1062.41713	-817.20706	-814.19626	1049.68164	-840.66101	-1083.86581	1080.30225	-464.49331	-1077.27534	1069.06504	-653.42225	-1064.87923	1072.20600	-470.82159	-1065.56238	1070.43934	-631.36399	
117	1.16000000	-993.99693	690.31948	-429.82729	-1012.23660	571.11371	-450.90255	-1235.63572	403.71991	-464.06569	-1298.74386	367.73819	-511.99718	-1141.35365	346.56642	-421.00514	-1101.91621	359.93411	-463.66165	-958.24128	691.30086	-689.10585	-982.02618	579.13776	-645.32570	-1226.39507	425.79935	-709.50611	-1292.70448	397.20197	-672.63835	-1134.23969	352.66343	-738.75511	-1092.45079	357.45931	-683.98225	-1089.62297	489.53104	-464.81556	-1055.38455	599.82318	-396.11773	-1143.32450	531.85966	-417.52917	-996.20604	629.45707	-718.14779	-1081.72681	545.60716	-741.29047	-973.94430	995.88997	-403.30791	-948.47676	890.11593	-406.51248	-988.55030	850.43219	-374.27445	-1078.11016	965.02107	-373.01649	-1044.66735	853.90765	-376.65237	-974.46267	981.99870	-728.56828	-919.33325	853.66461	-709.00700	-1077.64831	946.29211	-748.10390	-1024.50872	815.22475	-726.61681	-957.76548	1108.30459	-437.90984	-1099.99892	1228.87313	-510.70160	-952.19232	1101.11264	-680.89923	-1100.48952	1227.60709	-628.80471	-860.83711	1614.11236	-555.52435	-802.87666	1565.80608	-405.64462	-799.00197	1567.63695	-709.22669	-758.88007	1518.70805	-533.84922	-758.78500	1515.57986	-577.19278	-822.37408	1441.96705	-340.33044	-968.92345	1278.95320	-355.50178	-926.09446	1282.69540	-293.11163	-870.91603	1165.39338	-290.69156	-834.76551	1069.21312	-301.11402	-861.90153	1058.97510	-277.40882	-818.12587	1425.83324	-784.83313	-941.84985	1259.22031	-782.28012	-911.12724	1272.92345	-849.21590	-842.86018	1189.72328	-848.61743	-785.60274	1078.43036	-817.75603	-802.56476	1065.29540	-841.36082	-1070.50126	1085.75486	-464.84723	-1063.84431	1074.97602	-653.80047	-1051.46434	1078.13827	-471.16953	-1052.13063	1076.41770	-631.64478	
118	1.17000000	-994.31394	693.54277	-429.04419	-1012.79748	574.28595	-449.83517	-1235.40832	405.03186	-463.52998	-1298.04164	370.00580	-511.49891	-1141.19836	346.51685	-420.87497	-1101.64528	359.81142	-463.34355	-958.46472	692.96425	-687.73271	-982.61316	581.26796	-644.28863	-1225.91303	426.18597	-709.56798	-1292.35325	398.11746	-671.67757	-1134.17661	352.77086	-738.65828	-1092.38427	357.43251	-683.91874	-1089.59255	492.22733	-463.63294	-1056.40722	602.70077	-395.33718	-1143.61653	534.22992	-416.75072	-996.79275	631.02652	-717.76353	-1081.53006	546.64285	-741.13017	-962.91743	998.69922	-403.93688	-940.46160	890.77215	-408.84264	-982.77517	853.86855	-374.07001	-1067.70498	971.27393	-374.55300	-1038.62093	859.51170	-376.43629	-963.26844	984.97466	-727.12659	-913.52164	854.59571	-707.64864	-1067.92936	953.13566	-748.70381	-1019.96490	820.16870	-726.02581	-943.85975	1116.10884	-437.83612	-1087.31869	1235.08386	-510.69124	-938.15840	1109.43495	-681.22877	-1087.89379	1233.96029	-628.81219	-856.28304	1625.37504	-555.85417	-797.76870	1578.92518	-405.87821	-794.00728	1580.71338	-709.35981	-752.78944	1531.63950	-534.24799	-752.70170	1528.57303	-577.56704	-816.69943	1455.49795	-339.34811	-963.05746	1291.64592	-353.36943	-919.84587	1296.20655	-291.37058	-862.06427	1180.41324	-289.29528	-824.11352	1084.98715	-299.80037	-850.61520	1074.30032	-275.74477	-812.26815	1439.64838	-786.22292	-935.77675	1272.95131	-785.12522	-904.45877	1287.00179	-851.85963	-834.66392	1205.02746	-849.73268	-776.18546	1094.82439	-818.16370	-792.33852	1081.61861	-842.50023	-1056.26258	1092.26917	-465.04709	-1049.44987	1081.87477	-654.01680	-1037.17008	1084.92472	-471.12414	-1037.95305	1083.39662	-631.85816	
